<?xml version="1.0" encoding="utf-8"?>
<!-- Generator: Adobe Illustrator 24.3.0, SVG Export Plug-In . SVG Version: 6.00 Build 0)  -->
<svg version="1.1" id="Capa_1" xmlns="http://www.w3.org/2000/svg" xmlns:xlink="http://www.w3.org/1999/xlink" x="0px" y="0px"
	 viewBox="0 0 748.3 473.3" style="enable-background:new 0 0 748.3 473.3;" xml:space="preserve">
<style type="text/css">
	.st0{fill:#0088cc;}
</style>
<path class="st0" d="M692,256.7H20c-11,0-20-9-20-20c0-11,9-20,20-20H692c11,0,20,9,20,20C712,247.7,703.1,256.7,692,256.7z"/>
<path class="st0" d="M503.4,473.3c-5.1,0-10.2-2-14.1-5.9c-7.8-7.8-7.8-20.5,0-28.3l202.5-202.5L489.3,34.1
	c-7.8-7.8-7.8-20.5,0-28.3c7.8-7.8,20.5-7.8,28.3,0l230.7,230.8L517.6,467.4C513.7,471.4,508.6,473.3,503.4,473.3z"/>
</svg>
